<svg width="375" height="812" viewBox="0 0 375 812" fill="none" xmlns="http://www.w3.org/2000/svg">
<g clip-path="url(#clip0_1_75)">
<rect width="375" height="812" fill="#1A1B22"/>
<rect width="375" height="812" fill="#FBFFF3"/>
<path d="M245.046 766.17C244.258 766.17 243.578 765.996 243.006 765.648C242.438 765.297 241.999 764.807 241.69 764.178C241.385 763.546 241.232 762.811 241.232 761.973C241.232 761.135 241.385 760.396 241.69 759.757C241.999 759.114 242.429 758.614 242.98 758.255C243.534 757.893 244.18 757.712 244.918 757.712C245.345 757.712 245.765 757.783 246.181 757.925C246.596 758.067 246.975 758.298 247.315 758.617C247.656 758.933 247.928 759.352 248.13 759.874C248.333 760.396 248.434 761.039 248.434 761.803V762.335H242.127V761.249H247.156C247.156 760.787 247.063 760.375 246.879 760.013C246.698 759.651 246.438 759.365 246.101 759.155C245.767 758.946 245.373 758.841 244.918 758.841C244.418 758.841 243.985 758.965 243.619 759.214C243.257 759.459 242.978 759.778 242.782 760.173C242.587 760.567 242.489 760.989 242.489 761.44V762.165C242.489 762.783 242.596 763.306 242.809 763.736C243.026 764.162 243.326 764.487 243.709 764.711C244.093 764.931 244.538 765.041 245.046 765.041C245.377 765.041 245.675 764.995 245.941 764.903C246.211 764.807 246.444 764.665 246.639 764.477C246.834 764.285 246.985 764.047 247.092 763.763L248.306 764.104C248.178 764.516 247.964 764.878 247.662 765.19C247.36 765.499 246.987 765.741 246.543 765.915C246.099 766.085 245.6 766.17 245.046 766.17ZM254.503 757.818L256.463 761.163L258.423 757.818H259.872L257.23 761.909L259.872 766H258.423L256.463 762.825L254.503 766H253.054L255.653 761.909L253.054 757.818H254.503ZM264.884 769.068V757.818H266.099V759.118H266.248C266.34 758.976 266.468 758.795 266.632 758.575C266.799 758.351 267.036 758.152 267.345 757.978C267.658 757.8 268.08 757.712 268.613 757.712C269.302 757.712 269.909 757.884 270.435 758.228C270.96 758.573 271.371 759.061 271.665 759.693C271.96 760.325 272.107 761.071 272.107 761.93C272.107 762.797 271.96 763.548 271.665 764.184C271.371 764.816 270.962 765.306 270.44 765.654C269.918 765.998 269.316 766.17 268.634 766.17C268.109 766.17 267.688 766.083 267.372 765.909C267.056 765.732 266.813 765.531 266.642 765.308C266.472 765.08 266.34 764.892 266.248 764.743H266.142V769.068H264.884ZM266.12 761.909C266.12 762.527 266.211 763.072 266.392 763.544C266.573 764.013 266.838 764.381 267.186 764.647C267.534 764.91 267.96 765.041 268.464 765.041C268.99 765.041 269.428 764.903 269.78 764.626C270.135 764.345 270.401 763.969 270.579 763.496C270.76 763.021 270.85 762.491 270.85 761.909C270.85 761.334 270.762 760.815 270.584 760.354C270.41 759.888 270.145 759.521 269.79 759.251C269.439 758.978 268.997 758.841 268.464 758.841C267.953 758.841 267.523 758.971 267.175 759.23C266.827 759.485 266.564 759.844 266.387 760.306C266.209 760.764 266.12 761.298 266.12 761.909ZM279.652 766.192C279.133 766.192 278.663 766.094 278.24 765.899C277.817 765.7 277.482 765.414 277.233 765.041C276.985 764.665 276.86 764.21 276.86 763.678C276.86 763.209 276.953 762.829 277.137 762.538C277.322 762.243 277.569 762.012 277.878 761.845C278.187 761.678 278.528 761.554 278.9 761.472C279.277 761.387 279.655 761.32 280.035 761.27C280.532 761.206 280.935 761.158 281.244 761.126C281.557 761.091 281.784 761.032 281.926 760.95C282.072 760.869 282.144 760.727 282.144 760.524V760.482C282.144 759.956 282.001 759.548 281.713 759.256C281.429 758.965 280.997 758.82 280.419 758.82C279.818 758.82 279.348 758.951 279.007 759.214C278.666 759.477 278.426 759.757 278.288 760.055L277.095 759.629C277.308 759.132 277.592 758.745 277.947 758.468C278.306 758.187 278.696 757.992 279.119 757.882C279.545 757.768 279.964 757.712 280.376 757.712C280.639 757.712 280.941 757.744 281.281 757.808C281.626 757.868 281.958 757.994 282.278 758.186C282.601 758.377 282.869 758.667 283.082 759.054C283.295 759.441 283.402 759.96 283.402 760.609V766H282.144V764.892H282.08C281.995 765.07 281.853 765.26 281.654 765.462C281.455 765.664 281.191 765.837 280.861 765.979C280.53 766.121 280.127 766.192 279.652 766.192ZM279.843 765.062C280.34 765.062 280.759 764.965 281.1 764.77C281.445 764.574 281.704 764.322 281.878 764.013C282.056 763.704 282.144 763.379 282.144 763.038V761.888C282.091 761.952 281.974 762.01 281.793 762.064C281.615 762.113 281.409 762.158 281.175 762.197C280.944 762.232 280.719 762.264 280.498 762.293C280.282 762.317 280.106 762.339 279.971 762.357C279.644 762.399 279.339 762.468 279.055 762.564C278.774 762.657 278.547 762.797 278.373 762.985C278.203 763.17 278.117 763.422 278.117 763.741C278.117 764.178 278.279 764.509 278.602 764.732C278.929 764.952 279.343 765.062 279.843 765.062ZM290.172 761.078V766H288.915V757.818H290.129V759.097H290.236C290.428 758.681 290.719 758.347 291.109 758.095C291.5 757.839 292.004 757.712 292.622 757.712C293.176 757.712 293.661 757.825 294.076 758.053C294.492 758.276 294.815 758.617 295.046 759.075C295.277 759.53 295.392 760.105 295.392 760.801V766H294.135V760.886C294.135 760.244 293.968 759.743 293.634 759.384C293.3 759.022 292.842 758.841 292.26 758.841C291.859 758.841 291.5 758.928 291.184 759.102C290.871 759.276 290.625 759.53 290.443 759.864C290.262 760.197 290.172 760.602 290.172 761.078ZM306.703 759.651L305.574 759.97C305.503 759.782 305.398 759.599 305.26 759.422C305.125 759.24 304.94 759.091 304.706 758.974C304.471 758.857 304.171 758.798 303.806 758.798C303.305 758.798 302.888 758.914 302.554 759.145C302.224 759.372 302.058 759.661 302.058 760.013C302.058 760.325 302.172 760.572 302.399 760.753C302.627 760.934 302.982 761.085 303.465 761.206L304.679 761.504C305.411 761.682 305.956 761.953 306.314 762.319C306.673 762.681 306.852 763.148 306.852 763.72C306.852 764.189 306.718 764.608 306.448 764.977C306.181 765.347 305.808 765.638 305.329 765.851C304.85 766.064 304.292 766.17 303.656 766.17C302.822 766.17 302.131 765.989 301.584 765.627C301.038 765.265 300.691 764.736 300.546 764.04L301.739 763.741C301.852 764.182 302.067 764.512 302.383 764.732C302.703 764.952 303.12 765.062 303.635 765.062C304.221 765.062 304.686 764.938 305.031 764.69C305.379 764.437 305.553 764.136 305.553 763.784C305.553 763.5 305.453 763.262 305.254 763.07C305.056 762.875 304.75 762.729 304.338 762.634L302.975 762.314C302.225 762.136 301.675 761.861 301.323 761.488C300.975 761.112 300.801 760.641 300.801 760.077C300.801 759.615 300.931 759.207 301.19 758.852C301.453 758.496 301.81 758.218 302.261 758.015C302.715 757.813 303.23 757.712 303.806 757.712C304.615 757.712 305.251 757.889 305.713 758.244C306.178 758.599 306.508 759.068 306.703 759.651ZM311.964 766V757.818H313.221V766H311.964ZM312.603 756.455C312.358 756.455 312.146 756.371 311.969 756.204C311.795 756.037 311.708 755.837 311.708 755.602C311.708 755.368 311.795 755.167 311.969 755C312.146 754.833 312.358 754.75 312.603 754.75C312.848 754.75 313.057 754.833 313.231 755C313.409 755.167 313.498 755.368 313.498 755.602C313.498 755.837 313.409 756.037 313.231 756.204C313.057 756.371 312.848 756.455 312.603 756.455ZM322.066 766.17C321.327 766.17 320.679 765.995 320.121 765.643C319.568 765.292 319.134 764.8 318.822 764.168C318.513 763.536 318.358 762.797 318.358 761.952C318.358 761.099 318.513 760.355 318.822 759.72C319.134 759.084 319.568 758.591 320.121 758.239C320.679 757.887 321.327 757.712 322.066 757.712C322.804 757.712 323.451 757.887 324.005 758.239C324.562 758.591 324.995 759.084 325.304 759.72C325.617 760.355 325.773 761.099 325.773 761.952C325.773 762.797 325.617 763.536 325.304 764.168C324.995 764.8 324.562 765.292 324.005 765.643C323.451 765.995 322.804 766.17 322.066 766.17ZM322.066 765.041C322.627 765.041 323.088 764.897 323.451 764.61C323.813 764.322 324.081 763.944 324.255 763.475C324.429 763.006 324.516 762.499 324.516 761.952C324.516 761.405 324.429 760.895 324.255 760.423C324.081 759.951 323.813 759.569 323.451 759.278C323.088 758.987 322.627 758.841 322.066 758.841C321.505 758.841 321.043 758.987 320.681 759.278C320.319 759.569 320.05 759.951 319.876 760.423C319.702 760.895 319.615 761.405 319.615 761.952C319.615 762.499 319.702 763.006 319.876 763.475C320.05 763.944 320.319 764.322 320.681 764.61C321.043 764.897 321.505 765.041 322.066 765.041ZM332.168 761.078V766H330.911V757.818H332.125V759.097H332.232C332.424 758.681 332.715 758.347 333.105 758.095C333.496 757.839 334 757.712 334.618 757.712C335.172 757.712 335.657 757.825 336.072 758.053C336.488 758.276 336.811 758.617 337.042 759.075C337.273 759.53 337.388 760.105 337.388 760.801V766H336.131V760.886C336.131 760.244 335.964 759.743 335.63 759.384C335.296 759.022 334.838 758.841 334.256 758.841C333.855 758.841 333.496 758.928 333.18 759.102C332.867 759.276 332.621 759.53 332.44 759.864C332.258 760.197 332.168 760.602 332.168 761.078Z" fill="#ACE15A"/>
<line x1="339" y1="771.5" x2="240" y2="771.5" stroke="#ACE15A"/>
</g>
<defs>
<clipPath id="clip0_1_75">
<rect width="375" height="812" fill="white"/>
</clipPath>
</defs>
</svg>
